<svg width="16" height="16" viewBox="0 0 16 16" fill="none" xmlns="http://www.w3.org/2000/svg">
<path d="M1.3963 7.39102C1.38831 7.29897 1.39953 7.20627 1.42927 7.11879C1.45901 7.03131 1.5066 6.95097 1.56904 6.88286C1.63147 6.81475 1.70738 6.76036 1.79195 6.72315C1.87652 6.68594 1.9679 6.66671 2.0603 6.66668H3.3333C3.51011 6.66668 3.67968 6.73692 3.8047 6.86195C3.92973 6.98697 3.99996 7.15654 3.99996 7.33335V13.6667C3.99996 13.8435 3.92973 14.0131 3.8047 14.1381C3.67968 14.2631 3.51011 14.3334 3.3333 14.3334H2.6113C2.44444 14.3334 2.28363 14.2709 2.16064 14.1581C2.03764 14.0454 1.9614 13.8906 1.94696 13.7244L1.3963 7.39102ZM5.99996 7.12502C5.99996 6.84635 6.1733 6.59702 6.42496 6.47835C6.97463 6.21902 7.91096 5.69802 8.3333 4.99368C8.87763 4.08568 8.9803 2.44535 8.99696 2.06969C8.9993 2.01702 8.99796 1.96435 9.00496 1.91235C9.0953 1.26135 10.3516 2.02169 10.8333 2.82569C11.095 3.26169 11.1283 3.83468 11.101 4.28235C11.0713 4.76102 10.931 5.22335 10.7933 5.68268L10.5 6.66169H14.119C14.222 6.66168 14.3236 6.68554 14.4158 6.7314C14.508 6.77725 14.5884 6.84386 14.6506 6.92598C14.7127 7.00811 14.755 7.10352 14.7741 7.20474C14.7932 7.30595 14.7886 7.41022 14.7606 7.50935L12.9706 13.848C12.9311 13.9878 12.847 14.1109 12.7311 14.1985C12.6152 14.2861 12.4739 14.3335 12.3286 14.3334H6.66663C6.48982 14.3334 6.32025 14.2631 6.19523 14.1381C6.0702 14.0131 5.99996 13.8435 5.99996 13.6667V7.12502Z" stroke="black" stroke-linecap="round" stroke-linejoin="round"/>
</svg>
