<svg width="28" height="12" viewBox="0 0 28 12" fill="none" xmlns="http://www.w3.org/2000/svg">
<path d="M10.55 4.43759L6.34995 8.65009C6.29995 8.70009 6.24578 8.73559 6.18745 8.75659C6.12912 8.77759 6.06662 8.78792 5.99995 8.78759C5.93328 8.78759 5.87078 8.77726 5.81245 8.75659C5.75412 8.73592 5.69995 8.70042 5.64995 8.65009L1.43745 4.43759C1.32078 4.32092 1.26245 4.17509 1.26245 4.00009C1.26245 3.82509 1.32495 3.67509 1.44995 3.55009C1.57495 3.42509 1.72078 3.36259 1.88745 3.36259C2.05412 3.36259 2.19995 3.42509 2.32495 3.55009L5.99995 7.22509L9.67495 3.55009C9.79162 3.43342 9.93545 3.37509 10.1064 3.37509C10.2774 3.37509 10.4253 3.43759 10.55 3.56259C10.675 3.68759 10.7375 3.83342 10.7375 4.00009C10.7375 4.16676 10.675 4.31259 10.55 4.43759Z" fill="#757575"/>
</svg>
