<svg width="27" height="26" viewBox="0 0 27 26" fill="none" xmlns="http://www.w3.org/2000/svg">
<path d="M11.9376 8.45005L16.1501 12.65C16.2001 12.7 16.2356 12.7542 16.2566 12.8125C16.2776 12.8709 16.2879 12.9334 16.2876 13C16.2876 13.0667 16.2773 13.1292 16.2566 13.1875C16.2359 13.2459 16.2004 13.3 16.1501 13.35L11.9376 17.5625C11.8209 17.6792 11.6751 17.7375 11.5001 17.7375C11.3251 17.7375 11.1751 17.675 11.0501 17.55C10.9251 17.425 10.8626 17.2792 10.8626 17.1125C10.8626 16.9459 10.9251 16.8 11.0501 16.675L14.7251 13L11.0501 9.32505C10.9334 9.20838 10.8751 9.06455 10.8751 8.89355C10.8751 8.72255 10.9376 8.57472 11.0626 8.45005C11.1876 8.32505 11.3334 8.26255 11.5001 8.26255C11.6668 8.26255 11.8126 8.32505 11.9376 8.45005Z" fill="#8CAD2D"/>
<rect x="1" y="0.5" width="25" height="25" rx="12.5" stroke="#8CAD2D"/>
</svg>
