<?xml version="1.0" encoding="UTF-8"?>
<svg id="_圖層_2" data-name="圖層 2" xmlns="http://www.w3.org/2000/svg" viewBox="0 0 199.61 95.7">
  <defs>
    <style>
      .cls-1 {
        fill: #8cad2d;
      }
    </style>
  </defs>
  <g id="_圖層_3" data-name="圖層 3">
    <path class="cls-1" d="m20.72,0S0,5.66,0,24.15s12.22,22.81,18.04,25.04c6.41,1.49,20.42.75,26.68,3.88,4.62,2.83,4.92,8.2,3.13,14.01s-4.62,13.42-4.47,18.04,2.98,10.58,8.35,10.58,8.8-2.68,8.94-7.6c1.04-7.75-2.83-14.46-4.62-20.57-.3-4.77-.45-12.22,3.28-14.01s13.04-.22,22.73,3.95,23.78,1.71,34.36-3.65,20.57.15,25.94,2.09,9.91,3.5,19-2.32c8.73-5.73,10.81-.52,21.84-5.73,10.88-6.41,16.25-12.82,16.4-22.21s-4.17-21.02-19.83-25.64H20.72Z"/>
  </g>
</svg>