<svg width="40" height="40" viewBox="0 0 40 40" fill="none" xmlns="http://www.w3.org/2000/svg">
<g clip-path="url(#clip0_277_4350)">
<rect width="40" height="40" rx="20" fill="#F0A739"/>
<rect width="24" height="22" transform="translate(8 9)" fill="white"/>
<path d="M23.0063 16.7625V21.2063C23.0063 21.3188 22.9188 21.4063 22.8063 21.4063H22.0938C22.025 21.4063 21.9625 21.3688 21.9313 21.325L19.8938 18.575V21.2125C19.8938 21.325 19.8063 21.4125 19.6938 21.4125H18.9813C18.8688 21.4125 18.7813 21.325 18.7813 21.2125V16.7688C18.7813 16.6563 18.8688 16.5688 18.9813 16.5688H19.6875C19.75 16.5688 19.8188 16.6 19.85 16.6563L21.8875 19.4063V16.7688C21.8875 16.6563 21.975 16.5688 22.0875 16.5688H22.8C22.9125 16.5625 23.0063 16.6563 23.0063 16.7625ZM17.8813 16.5625H17.1688C17.0563 16.5625 16.9688 16.65 16.9688 16.7625V21.2063C16.9688 21.3188 17.0563 21.4063 17.1688 21.4063H17.8813C17.9938 21.4063 18.0813 21.3188 18.0813 21.2063V16.7625C18.0813 16.6563 17.9938 16.5625 17.8813 16.5625ZM16.1625 20.2875H14.2188V16.7625C14.2188 16.65 14.1313 16.5625 14.0188 16.5625H13.3063C13.1938 16.5625 13.1063 16.65 13.1063 16.7625V21.2063C13.1063 21.2625 13.125 21.3063 13.1625 21.3438C13.2 21.375 13.2438 21.4 13.3 21.4H16.1563C16.2688 21.4 16.3563 21.3125 16.3563 21.2V20.4875C16.3563 20.3813 16.2688 20.2875 16.1625 20.2875ZM26.7563 16.5625H23.9C23.7938 16.5625 23.7 16.65 23.7 16.7625V21.2063C23.7 21.3125 23.7875 21.4063 23.9 21.4063H26.7563C26.8688 21.4063 26.9563 21.3188 26.9563 21.2063V20.4938C26.9563 20.3813 26.8688 20.2938 26.7563 20.2938H24.8125V19.5438H26.7563C26.8688 19.5438 26.9563 19.4563 26.9563 19.3438V18.625C26.9563 18.5125 26.8688 18.425 26.7563 18.425H24.8125V17.675H26.7563C26.8688 17.675 26.9563 17.5875 26.9563 17.475V16.7625C26.95 16.6563 26.8625 16.5625 26.7563 16.5625ZM34 11.1063V28.9375C33.9938 31.7375 31.7 34.0063 28.8938 34H11.0625C8.26251 33.9938 5.99376 31.6938 6.00001 28.8938V11.0625C6.00626 8.26251 8.30626 5.99376 11.1063 6.00001H28.9375C31.7375 6.00626 34.0063 8.30001 34 11.1063ZM30.15 18.7688C30.15 14.2063 25.575 10.4938 19.9563 10.4938C14.3375 10.4938 9.76251 14.2063 9.76251 18.7688C9.76251 22.8563 13.3875 26.2813 18.2875 26.9313C19.4813 27.1875 19.3438 27.625 19.075 29.2313C19.0313 29.4875 18.8688 30.2375 19.9563 29.7813C21.0438 29.325 25.825 26.325 27.9688 23.8625C29.4438 22.2375 30.15 20.5938 30.15 18.7688Z" fill="#F0A739"/>
</g>
<defs>
<clipPath id="clip0_277_4350">
<rect width="40" height="40" rx="20" fill="white"/>
</clipPath>
</defs>
</svg>
