<svg width="32" height="8" viewBox="0 0 32 8" fill="none" xmlns="http://www.w3.org/2000/svg">
<path d="M0 5.12343C0 4.35021 0.444249 3.64698 1.15137 3.33418C2.76629 2.61981 5.75747 1.3677 8 0.841949C11.0718 0.121774 13.5838 0 16 0C18.4162 0 20.9282 0.121774 24 0.841949C26.2425 1.3677 29.2337 2.61981 30.8486 3.33418C31.5558 3.64698 32 4.35021 32 5.12343V5.84115C32 7.30899 30.4651 8.29181 29.1074 7.73389C27.5281 7.08489 25.5786 6.35489 24 5.98481C20.9282 5.26463 18.4162 5.14286 16 5.14286C13.5838 5.14286 11.0718 5.26463 8 5.98481C6.42144 6.35489 4.47192 7.08489 2.8926 7.73389C1.53493 8.29181 0 7.309 0 5.84115V5.12343Z" fill="#F7822E"/>
</svg>
