<?xml version="1.0" encoding="UTF-8"?>
<svg id="_圖層_2" data-name="圖層 2" xmlns="http://www.w3.org/2000/svg" viewBox="0 0 132.24 136.71">
  <defs>
    <style>
      .cls-1 {
        fill: #ffbc0d;
      }

      .cls-2 {
        stroke-width: 2px;
      }

      .cls-2, .cls-3 {
        fill: none;
        stroke: #ffbc0d;
        stroke-linecap: round;
        stroke-miterlimit: 10;
      }

      .cls-3 {
        stroke-width: 3px;
      }
    </style>
  </defs>
  <g id="_圖層_3" data-name="圖層 3">
    <g>
      <circle class="cls-3" cx="66.57" cy="66.34" r="38.46"/>
      <line class="cls-3" x1="84.23" y1="22.07" x2="90.27" y2="9.77"/>
      <line class="cls-3" x1="66.57" y1="14.47" x2="66.57" y2="1.5"/>
      <line class="cls-3" x1="46.44" y1="19.84" x2="41.3" y2="6.42"/>
      <line class="cls-3" x1="21.18" y1="22.52" x2="31.46" y2="33.25"/>
      <line class="cls-3" x1="8.21" y1="44.43" x2="21.85" y2="50.02"/>
      <line class="cls-3" x1="1.5" y1="67.91" x2="15.03" y2="67.91"/>
      <line class="cls-3" x1="5.75" y1="93.4" x2="18.49" y2="87.36"/>
      <line class="cls-3" x1="30.12" y1="103.24" x2="19.88" y2="114.2"/>
      <line class="cls-3" x1="46.44" y1="113.75" x2="40.41" y2="127.61"/>
      <line class="cls-3" x1="65.45" y1="120.68" x2="65.45" y2="135.21"/>
      <line class="cls-3" x1="83.79" y1="113.52" x2="89.15" y2="124.93"/>
      <line class="cls-3" x1="101.67" y1="104.8" x2="111.96" y2="114.2"/>
      <line class="cls-3" x1="113.3" y1="86.25" x2="126.72" y2="91.61"/>
      <line class="cls-3" x1="115.54" y1="66.34" x2="130.74" y2="66.34"/>
      <line class="cls-3" x1="109.28" y1="47.23" x2="123.14" y2="41.3"/>
      <line class="cls-3" x1="99.56" y1="32.7" x2="109.62" y2="21.52"/>
      <path class="cls-2" d="m68.45,37.95s26.94.11,26.61,27.39"/>
      <path class="cls-1" d="m110.55,70.15c5.75,0,8.99,6.5,9.16,8.27,6.56,2.83,1.94,8.2,1.94,8.2,0,0-22.68.45-27.2.45-5.37-5.52,1.49-8.65,1.49-8.65.12-5.33,4.8-6.24,7.27-6.24.64,0,1.13.06,1.36.12,2.22-1.54,4.22-2.16,5.98-2.16m0-2c-2.11,0-4.28.7-6.45,2.07-.28-.02-.58-.04-.89-.04-3.91,0-8.47,1.86-9.18,7.02-1.23.79-3.09,2.35-3.54,4.75-.41,2.18.44,4.37,2.52,6.51.38.39.89.61,1.43.61,4.5,0,26.32-.43,27.24-.45.57-.01,1.11-.26,1.48-.69.28-.32,2.68-3.23,1.92-6.55-.42-1.81-1.65-3.27-3.66-4.35-1.02-3.11-4.7-8.88-10.87-8.88h0Z"/>
    </g>
  </g>
</svg>